<svg width="28" height="28" viewBox="0 0 28 28" fill="none" xmlns="http://www.w3.org/2000/svg">
<path fill-rule="evenodd" clip-rule="evenodd" d="M27.4351 1.98057C27.8257 1.59005 27.8257 0.956883 27.4351 0.566359C27.0446 0.175835 26.4114 0.175835 26.0209 0.566359L14 12.5873L1.97908 0.566359C1.58856 0.175835 0.95539 0.175835 0.564866 0.566359C0.174342 0.956883 0.174342 1.59005 0.564866 1.98057L12.5858 14.0015L0.565079 26.0222C0.174555 26.4127 0.174555 27.0459 0.565079 27.4364C0.955603 27.8269 1.58877 27.8269 1.97929 27.4364L14 15.4157L26.0207 27.4364C26.4112 27.8269 27.0444 27.8269 27.4349 27.4364C27.8254 27.0459 27.8254 26.4127 27.4349 26.0222L15.4142 14.0015L27.4351 1.98057Z" fill="#C5358C"/>
</svg>
